<?xml version="1.0" encoding="UTF-8"?>
<svg id="Layer_1" data-name="Layer 1" xmlns="http://www.w3.org/2000/svg" viewBox="0 0 942.76 1043.18">
  <defs>
    <style>
      .cls-1 {
        fill: #fff;
        stroke-width: 0px;
      }
    </style>
  </defs>
  <path class="cls-1" d="M794.36,785.41H145.27c-.16-3.7-.46-7.24-.46-10.77-.07-142.34,0-284.68-.24-427.01-.05-29.4.73-58.61,6.99-87.48,10.1-46.59,28.93-89.24,57.48-127.44C265.02,57.84,339.7,13.99,432.15,2.42c64.06-8.02,125.33,4.06,183.06,33.57,36.64,18.72,68.74,43.1,96.03,73.92,30.22,34.13,52.41,72.77,66.76,116.06,11.99,36.18,16.17,73.39,16.18,111.28.02,137,.12,274.01.18,411.01,0,11.97,0,23.94,0,37.15ZM164.42,764.9c11.58,2.11,602.5,1.72,610.11-.39,0-4.05,0-8.33,0-12.62-.06-138.66-.17-277.33-.15-415.99,0-22.07-1.72-43.92-6.17-65.55-20.32-98.66-75.26-171.39-164.52-217.66-46.81-24.27-97.1-33.6-149.81-31.64-51.6,1.93-99.16,16.99-142.46,44.15-77.18,48.4-123.75,118.39-141.57,207.64-5.45,27.31-5.47,54.96-5.46,82.64.04,130.66.02,261.32.03,391.99,0,5.63,0,11.27,0,17.43Z"/>
  <path class="cls-1" d="M401.62,820.8c12.43-3.24,20.51-.6,26.02,10.96,5.56,11.66,13.06,22.4,19.78,33.49,2.36,3.89,4.93,7.65,8.14,12.6,9.51-15.92,19.31-30.27,26.9-45.71,5.63-11.46,13.27-14.45,24.65-11.82,2.33,7.14,3.31,77.85,1.21,94.92h-20.24v-50.63c-.6-.19-1.2-.37-1.8-.56-1.25,1.64-2.7,3.16-3.72,4.92-6.15,10.66-12.09,21.45-18.32,32.07-4.54,7.72-12.21,7.82-17.04.18-5.34-8.43-10.26-17.13-15.47-25.65-2.21-3.62-4.7-7.07-8.87-10.18v49.87h-21.24v-94.46Z"/>
  <path class="cls-1" d="M657.56,863.17v52.2h-22.15v-94.74c2.28-.32,4.18-.53,6.07-.87,8.91-1.62,14.75,2.27,20.1,9.32,10.87,14.32,22.6,27.98,33.9,41.97,1,1.23,1.45,2.9,2.16,4.36.99-.49,1.98-.98,2.98-1.47v-53.69h22.47c.18,31.49.47,62.93-.09,95.64-5.32,0-10.3.62-15.02-.23-2.86-.52-5.88-2.82-7.86-5.15-11.22-13.2-22.13-26.66-33.18-40-2.28-2.76-4.73-5.39-7.1-8.07-.76.24-1.52.49-2.29.73Z"/>
  <path class="cls-1" d="M760.13,987.94v53.17h-21.62c-1.37-31.22.18-62.64-.58-95.14,5.6-.16,10.56-.97,15.26-.2,2.84.46,5.82,2.92,7.79,5.27,12.43,14.78,24.6,29.77,36.86,44.7,1.23,1.5,2.47,3,3.51,4.26.94-.2,1.27-.21,1.54-.35.27-.13.68-.38.68-.58.03-17.27.03-34.53.03-52.65h21.88v94.98c-5.28.14-10.53.83-15.59.16-2.47-.33-5.03-2.84-6.82-4.98-11.09-13.3-21.96-26.77-32.93-40.17-2.51-3.07-5.09-6.07-7.64-9.1-.79.21-1.57.43-2.36.64Z"/>
  <path class="cls-1" d="M358.86,943.92c15.01.71,31.15,7.84,41.12,25.37,9.3,16.34,8.98,33.12-.28,49.4-14.21,24.97-51.33,32.27-76.31,15.29-22.76-15.47-27.81-48.2-10.89-70.53,9.22-12.17,24.93-19.5,46.37-19.53ZM382.91,994.53c.06-17.92-12.71-31.83-29.04-31.61-15.41.21-28.5,14.03-28.6,30.21-.11,16.56,12.55,29.92,28.44,30.03,17.25.12,29.14-11.54,29.21-28.63Z"/>
  <path class="cls-1" d="M196.47,994.65c-.08,27.75-22.29,48.76-51.21,48.47-30.53-.31-52.15-20.84-52.37-49.73-.21-28.32,22.48-49.7,52.55-49.5,30.18.2,51.12,21.03,51.03,50.76ZM116.15,993.28c-.15,17.08,11.59,29.52,28.21,29.9,16.8.38,29.29-11.56,29.67-28.38.41-18.12-12.54-31.86-29.96-31.79-15.96.07-27.77,12.87-27.92,30.27Z"/>
  <path class="cls-1" d="M457.12,1004.81c-8.66,6.49-14.82,12.84-13.1,23.78.61,3.84.1,7.86.1,12.56h-22.02v-94.83h21.62v41.57c3.23-2.58,5.05-3.7,6.46-5.22,8.63-9.25,17.51-18.29,25.62-27.98,5.84-6.96,12.34-10.61,21.54-9.25,3.45.51,7.04.08,12.85.08-13.78,15.14-25.97,28.54-38.45,42.25,13.69,17.86,26.91,35.1,41.43,54.05-9.43,0-16.64.4-23.77-.22-2.47-.22-5.24-2.56-6.98-4.66-6.37-7.68-12.36-15.68-18.5-23.55-2.03-2.6-4.09-5.17-6.79-8.58Z"/>
  <path class="cls-1" d="M302.25,1041.08c-2.57.57-3.21.81-3.86.84q-20.91.82-33.91-15.39c-5.77-7.2-11.56-14.38-17.63-21.93-8.05,6.68-14.21,13.12-12.42,24.01.63,3.85.1,7.89.1,12.55h-21.77v-94.72h21.54v41.56c3.95-3.56,6.17-5.31,8.09-7.34,8.68-9.21,17.5-18.31,25.82-27.85,4.76-5.46,9.99-8.33,17.34-7.47,3.87.45,7.84.08,14.48.08-7.67,8.51-13.77,15.23-19.81,22-6.18,6.92-12.3,13.89-18.63,21.04,13.59,17.59,26.74,34.6,40.65,52.62Z"/>
  <path class="cls-1" d="M899.71,945.54c14.43,32.15,28.54,63.59,43.05,95.92h-23.4c-2.94-6.29-5.98-12.8-9-19.27h-43.72c-2.94,6.56-5.77,12.89-8.69,19.4h-21.97c.51-2.4.62-4.61,1.45-6.51,11.91-27.09,24.07-54.07,35.76-81.25,2.59-6.02,5.76-9.22,12.61-8.4,4.24.51,8.6.09,13.91.09ZM902.4,1003.34c-4.7-11.4-8.99-21.8-13.28-32.2l-2.2.22c-3.87,10.47-8.7,20.6-11.9,31.98h27.37Z"/>
  <path class="cls-1" d="M648.79,946.07h70.59c.26,2.86.62,5.11.64,7.37.02,2.95-.23,5.89-.4,9.88h-48.68v20.37h42.63v18.03h-42.99v21.26h50.51v18.33h-71.48c-2.23-6.84-2.92-79.86-.81-95.23Z"/>
  <path class="cls-1" d="M306.87,915.78h-21.32c1.19-8.85,26.05-68.17,39.91-95.31h22.94c14.03,31.15,28.19,62.58,42.83,95.1h-23.69c-2.87-6.15-5.79-12.41-8.83-18.92h-43.25c-2.59,5.78-5.4,12.02-8.59,19.13ZM337.67,845.52c-.72.09-1.45.19-2.17.28-4.06,10.53-8.13,21.07-12.45,32.27,9.75,1.3,18.08,1.52,27.54.11-4.54-11.48-8.73-22.07-12.92-32.66Z"/>
  <path class="cls-1" d="M560.39,819.67c4.44,0,7.81.37,11.07-.07,8.06-1.08,12.5,1.98,15.83,9.71,11.7,27.22,24.2,54.1,36.34,81.12.64,1.43.83,3.07,1.46,5.48-6.96,0-13.22-.08-19.47.03-3.83.07-5.6-2.53-6.19-5.42-2.74-13.56-11.87-15.66-23.71-14.38-6.59.71-13.32.27-19.98.06-4.28-.13-6.74,1.43-8.13,5.62-1.56,4.7-3.82,9.16-5.81,13.82-2.7.16-5,.4-7.3.43-4.97.06-9.94.02-16.57.02,14.41-32.71,28.29-64.23,42.46-96.41ZM572.25,846.21l-2.13.39c-4.13,10.27-8.26,20.53-12.75,31.69h28.18c-4.77-11.51-9.04-21.8-13.3-32.08Z"/>
  <path class="cls-1" d="M1.12,945.88c17.39,0,34.39-1.23,51.13.33,18.61,1.74,29.71,14.57,30.35,31.36.75,19.81-10.9,33.64-30.83,36.11-5.91.73-11.95.53-17.93.68-3.23.08-6.46.01-10.91.01v26.98H2.15c-2.16-6.93-3.01-76.97-1.03-95.47ZM23.53,995.75c7.82,0,14.48.3,21.09-.07,9.31-.52,15.24-6.58,15.42-15.1.18-8.16-6-15.86-14.29-16.58-7.18-.63-14.46-.13-22.23-.13v31.88Z"/>
  <path class="cls-1" d="M553.58,1030.56c2.36-5.55,4.53-10.66,6.92-16.29,11.21,6.78,22.43,10.47,34.74,9.82,2.96-.16,6.34-.06,8.73-1.46,2.53-1.48,5.26-4.4,5.72-7.07.36-2.09-2.05-5.94-4.19-6.93-5.98-2.77-12.46-4.44-18.74-6.57-5.33-1.81-10.76-3.39-15.96-5.52-9.51-3.9-14.85-11.03-15.08-21.47-.25-11.29,4.31-20,14.49-25.35,10.36-5.45,21.52-7.06,32.94-5.39,8.77,1.28,17.62,3.01,25.7,8.85-2.41,5.64-4.72,11.03-6.95,16.25-7.01-2.36-13.12-5.32-19.52-6.3-5.71-.88-11.83-.03-17.62.95-3.75.63-6.19,3.7-6.53,7.87-.35,4.38,2.19,7.12,5.79,8.36,5.95,2.04,12.15,3.34,18.21,5.09,5.09,1.47,10.34,2.68,15.15,4.82,9.95,4.43,15.78,12.08,15.66,23.34-.12,11.01-5.54,19.07-15.13,24.01-13.73,7.06-28.25,6.61-42.85,3.35-7.49-1.67-14.7-4.1-21.46-10.34Z"/>
  <path class="cls-1" d="M289.52,820.87v17.16h-30.26v77.24h-22.66v-76.79h-30.13v-16.94c7.37-2.37,69.64-2.99,83.04-.67Z"/>
  <path class="cls-1" d="M755.08,749.36H183.49c-.17-3.61-.46-6.85-.46-10.08-.03-136.69-.08-273.38-.02-410.07.02-48.92,10.91-95.57,34.36-138.34,40.95-74.68,102.6-124.29,185.72-145.17,38.19-9.59,76.95-10.38,116.01-3.06,50.71,9.5,95.75,30.6,134.76,63.94,46.63,39.86,77.81,89.72,92.9,149.44,6.16,24.39,9.03,49.1,9.01,74.23-.07,116.35-.05,232.71-.04,349.06,0,19.67.12,39.34.1,59.01,0,3.56-.47,7.11-.74,11.04ZM562.18,257.11c4.67,10.03,5.77,17.8-2.48,26.09-7.43,7.46-13.54,16.42-19.2,25.38-4.55,7.19-7.89,15.27-7.76,25.45,6.51-2.88,12.09-5.61,17.87-7.86,14.07-5.47,20.4-16.48,22.01-30.68.64-5.59,1.04-11.41.18-16.91-2-12.8-4.09-25.68-7.55-38.14-3.6-12.96-4.38-25.47-.15-38.28,1.23-3.72,1.88-7.63,2.8-11.45-.36-.11-.72-.21-1.07-.32-3.13,7.26-6.26,14.53-9.76,22.62-18.19-30.07-3.96-67.54,29.07-78.63,1.72,3.41,3.92,6.78,5.18,10.46,8.01,23.35,5.58,44.62-12.99,62.51-2.3,2.22-5.49,4.01-4.37,8.23,2.28,8.59,4.22,17.28,9.26,25.02,6.6-3.49,9.28-9.34,10.72-15.48,1.82-7.75,2.63-15.73,3.87-23.61,3.09-19.57,18.88-33.32,39.32-34.24,7.53,22.99-3.05,44.31-25.95,49.93.2-3.82.38-7.45.68-13.27-4.29,8.59-5.68,15.41-5.66,24.24,15.41-13.55,31.03-15.65,48.97-7.66-3.88,15.37-14.7,22.74-26.95,27.23,0,9.47.7,18.14-.19,26.64-.93,8.82-3.42,17.48-5.38,26.97,10.93-4.52,17.7-12.91,24.62-21.51-4.3,2-8.59,4-13.15,6.13-1.03-31.34,35.13-49.7,61.8-41.07,1.97,24.93-15.22,44.39-32.91,52.17-6.63,2.92-13.38,6.22-18.96,10.73-9.77,7.9-20.36,13.76-32.27,17.51-8.58,2.7-17.09,5.61-25.65,8.36-23.03,7.39-44.96,17.06-63.07,33.49-11.08,10.05-21.87,20.53-31.77,31.71-15.56,17.56-28.24,37.11-35.85,59.56-.62,1.82-.59,3.86-1.07,7.25,1.9-2.05,2.72-2.68,3.21-3.5,13.75-23.02,32.56-41.32,54.14-56.75,20.54-14.69,38.94-31.28,52.25-52.99,4.74-7.73,12.08-10.47,21.28-11.54-4.04,18.24-14.38,32.73-22.68,49.43,3.51,0,6.09.4,8.5-.06,27.98-5.31,52.03-16.61,65.64-43.59.45-.89,1.01-1.73,1.56-2.56,3.06-4.6,6.94-5.6,11.93-2.94,0,1.67.21,3.03-.05,4.3-.39,1.94-1.03,3.85-1.7,5.73-7.86,22.21-23.08,37.92-43.76,48.44-13.47,6.85-27.89,10.94-42.99,12.33-32.82,3.03-57.63,24.73-63.83,58.91-3.07,16.91-8.47,33.59-14.54,49.73-8.69,23.09-23.75,42.29-40.77,59.96-2.61,2.7-4.92,5.68-7.37,8.54.45.55.9,1.11,1.36,1.66,1.7-.51,3.75-.6,5.04-1.62,3.64-2.89,7.16-5.99,10.39-9.33,18.11-18.76,30.71-40.94,40.05-65.11.84-2.17,2.02-4.2,3.75-7.76,1.81,10.43,3.19,18.97,4.8,27.46,1.49,7.88,4.74,10.7,12.42,9.12,5.03-1.03,10.21-3.32,14.34-6.37,11.22-8.31,17.08-20.14,19.79-33.65.54-2.69,1.08-5.39,1.81-9.06,14.28,13.32,30.34,18.31,47.93,14.34,24.22-5.46,45.17-17.56,62.62-35.43,1.45-1.48,2.95-2.9,4.64-4.57,2.54,6.86,4.43,12.88,6.99,18.6,3.51,7.84,8.88,14.37,17.16,17.3,15.23,5.37,30.67,3.34,46.4,1.17.31-3.47.74-6.09.74-8.7.05-57.34.37-114.68-.05-172.02-.26-34.65-6.96-68.38-20.32-100.31-25.06-59.9-65.6-106.78-123.66-136.32-88.37-44.96-176.12-41.5-261.04,9.67-45.42,27.37-78.09,66.75-101.06,114.55-16.47,34.27-25.32,70.56-26.01,108.05-1.33,72.32-.39,144.68-.34,217.02,0,2.5.63,5,1.01,7.83,70.82.5,139.42,9.98,205.82,34.39,2.03-3.18,3.77-5.57,5.18-8.15,17.69-32.41,22.03-67.07,14.6-102.73-6.05-29.06-20.05-52.44-59.72-57.89-20.8-2.86-40.55-10.87-56.49-25.77-11.17-10.44-19.49-22.76-23.76-37.52-.61-2.1.09-6.48,1.08-6.78,2.42-.72,5.58-.16,8.02.88,1.55.66,2.36,3.1,3.46,4.76,6.1,9.19,12.64,18.01,21.39,24.92,9.32,7.37,19.57,12.88,31.16,15.98-7.64-11.89-16.45-22.76-19.12-38.02,11.87,4.43,19.57,12.76,28.32,19.7,10.39,8.23,21.37,15.73,32.23,23.35,10.33,7.26,21.25,13.75,31.11,21.58,6.14,4.87,10.81,11.6,16.52,17.92,1.09-1.5,2.19-2.7,2.93-4.09,7.88-14.8,18-27.95,29.02-40.54,6.12-6.99,11.81-14.49,16.78-22.33,13.78-21.74,15.89-44.42,2.37-66.99-5.6-9.34-13.05-17.58-19.72-26.27-1.76-2.3-3.77-4.41-5.73-6.68,3.44-5.01,6.43-9.36,9.94-14.47,18.18,13.82,30.91,31.34,41.61,52.15,11.51-18.35,25.6-32.18,41.2-45.89ZM203.33,591.26c13.74,0,26.36-.37,38.95.06,61.06,2.12,119.49,15.86,174.57,42.24,25.2,12.07,49.37,26.29,73.81,39.91,60.99,33.99,126.14,53.51,196,56.48,15.89.67,31.83.1,48.35.1v-26.32c-4.77,0-8.74-.17-12.69.03-33.43,1.69-66.57-.16-99.41-7.12-46.81-9.93-89.92-28.89-130.82-53.21-49.23-29.27-100.46-53.46-157.05-65.15-40.31-8.33-80.93-12.64-122.05-12.65-3.17,0-6.34.61-9.65.95v24.68ZM203.63,635.6c7.24,0,13.23-.35,19.18.06,21.57,1.51,43.32,1.99,64.65,5.2,52.28,7.86,100.79,26.75,146.77,52.67,19.13,10.78,38.9,20.43,58.44,30.46,9.04,4.64,18.65,6.6,28.91,6.3,12.98-.38,25.98,0,38.98,0,2.17,0,4.34-.28,6.52-.43-2.03-2.33-4.37-3.19-6.7-4.1-11.17-4.33-22.77-7.81-33.41-13.19-26.73-13.51-53.45-27.13-79.41-42.03-71.01-40.75-147.43-60.38-229.05-60.68-4.85-.02-9.71.49-14.88.76v24.97ZM552.5,517.19c-10.26,19.46-22.41,35.7-46.82,37.35,2.53,11.73,6.52,22.26,14.41,32.1,68.78-28.73,140.52-40.73,214.66-41.42v-28.94c-10.97.91-21.35,1.77-33.23,2.75,8.45,6.96,15.88,13.07,23.31,19.19-.36.69-.73,1.38-1.09,2.07-3.85-.5-8.26.05-11.47-1.66-21.2-11.35-38.93-26.59-50.78-49.03-2.99,3.62-5.28,6.44-7.61,9.22-13.53,16.14-27.67,31.8-45.75,42.89-20.4,12.51-21.38,10.08-35.97-3.89-6.65-6.37-12.74-13.33-19.67-20.62ZM455.74,730.13c-48.26-31.59-98.92-56.63-155.43-67.61-31.92-6.2-64.17-9.58-96.73-6.91v25.02c2.57.24,4.52.7,6.42.54,22.05-1.83,43.87.64,65.63,3.64,40.93,5.64,79.6,18.75,116.41,37.13,12.02,6,23.97,9.07,37.28,8.28,8.78-.52,17.61-.1,26.43-.1ZM734.72,566.32c-57.26-8.06-204.87,25.52-240.69,54.88,5.92,3.55,11.82,6.6,17.17,10.43,6.78,4.85,12.76,4.22,20.24.8,56.4-25.77,115.72-39.43,177.7-41.39,8.26-.26,16.53-.04,25.57-.04v-24.69ZM734.85,610.89c-45.71-5.82-165.58,18.26-190.01,38.26,6.29,2.91,12.58,5.18,18.21,8.56,7.91,4.75,15.38,4.14,23.81,1.36,37.49-12.36,75.84-20.51,115.4-22.23,10.61-.46,21.22-1.03,32.59-1.58v-24.37ZM202.96,700.91c.78,10.32-.85,19.45,1.14,28.69h153.84c-49.17-22.2-100.38-31.78-154.98-28.69ZM734.92,682.95v-27.72c-42.88-.23-84,4.93-124.17,17.54,40.47,11.79,81.53,15.14,124.17,10.18ZM617.1,250.3c-11.01-1.44-20.76,2.47-26.11,10.73-1.14,1.76-1.86,4.37-1.55,6.41,2.11,13.93,1.54,27.73-1.84,42.62,23.77-13.75,28.46-35.56,29.5-59.76ZM567.19,515.58c-.28.59-.56,1.19-.84,1.78,5.9,6.19,11.54,12.66,17.78,18.49,5.65,5.27,8.76,5.53,15,.66,9.42-7.37,18.32-15.4,27.33-23.28,2.82-2.47,5.28-5.37,7.9-8.07-11.73,3.01-22.31,7.53-33.07,11.58-11.3,4.26-22.74,1.91-34.1-1.17ZM473.3,474.73c-12.09,20.77-18.89,43.55-25.39,66.44,14.46-19.88,24.13-41.57,25.39-66.44ZM484.67,568.81c-.6,14.13,3.58,22.15,13.14,25.67-4.3-8.41-8.29-16.2-13.14-25.67ZM467.2,598.02c-.57.17-1.14.35-1.7.52.51,1.98.9,4.01,1.63,5.91.15.38,1.6.26,3.43.5-1.36-2.81-2.36-4.87-3.36-6.93Z"/>
  <path class="cls-1" d="M353.9,135.04c37.5,11.92,44.45,53.59,28.17,75.47-3.55-8.02-6.83-15.43-10.1-22.83-.55.15-1.1.3-1.66.44,1.34,5.42,2.2,11,4.1,16.21,3.84,10.5,5.63,21.24,5.05,32.34-.72,13.97,4.57,25,14.74,34.52,7.43,6.96,13.72,15.13,20.9,23.2,11.21-21.33,28.74-37.93,43.25-56.84,10.81-14.08,18.88-28.91,20.08-46.95.51-7.66,5.01-12.62,12.95-16.77,1.83,10.64,1.4,20.38.63,30.18-1.64,20.66-12.72,36.76-24.9,52.39-7.57,9.71-15.44,19.23-22.4,29.37-20,29.15-17.7,63.56.76,90.96,4.46,6.61,8.94,13.2,13.89,20.49-3.77,5.44-7.49,10.81-11.47,16.55-5.89-6.18-11.04-11.79-16.42-17.17-15.26-15.27-32.85-27.03-52.96-35-8.36-3.31-16.56-7.01-24.92-10.29-20.78-8.16-39.16-19.88-54.02-36.67-7.4-8.37-15.8-14.81-26.23-19.29-12.11-5.21-20.17-15.34-25.07-27.34-2.94-7.2-3.94-15.19-5.76-22.64,28.18-9.86,63.69,11.09,62.81,44.7-6.71-4.89-12.79-9.32-18.87-13.74-.24.36-.49.71-.73,1.07,9.64,10.21,19.28,20.42,28.91,30.63-2.07-21.16,7.93-38.97,14.79-58.42-21.94.42-38.87-5.68-45.56-27.91,16.61-9.23,31.13-6.29,47.64,9.67,2.8-9.53.44-17.65-4.64-27.85.41,6.1.67,9.92.95,13.94-22.08-5.49-33.1-26.49-26.36-49.17,17.01-1.8,36.25,12.38,40.51,30.09,1.24,5.16,1.9,10.45,2.81,15.69,2.07,11.94,5.54,23.32,13.51,32.82,1.17,1.4,2.79,2.42,5.61,4.81.9-12.82,1.83-23.96,2.32-35.12.09-1.99-1.49-4.19-2.68-6.06-.86-1.37-2.32-2.36-3.55-3.49-22.97-21.14-19.02-52.91-6.13-71.97ZM409.67,354.96c-1.13-9.03-2.13-16.58-3-24.15-1.82-15.76-8.46-29.18-19.26-40.72-12.48-13.34-29.04-20.6-44.35-31.25-5.5,13.84-7.55,27.21-6.81,40.88.32,5.85,1.75,11.93,4.03,17.33,4.86,11.53,14.87,16.46,27.19,19.96-3.33-20.37-7.24-39.17-4.16-59.62,7.19,3.85,11.64,8.55,13.36,15.8,1.84,7.76,3.43,15.61,5.86,23.18,4.86,15.11,12.43,28.5,27.12,38.59Z"/>
  <path class="cls-1" d="M427.68,206.03c.95,4.41,1.9,8.82,2.89,13.43-21.53-.9-34.21-29.1-23.41-51.13,9.98,1.83,18.37,6.85,26.88,14.6,3.97-13.25,8.89-25.53,11.19-38.29,3.46-19.17,11.61-35.17,25.89-48.18,28.75,19.69,29.04,65.78-.6,85.07v-31.96c-.9-.12-1.8-.25-2.7-.37-2.67,10.09-.97,21.39-7.26,32.13-4.21-5.42-7.77-10.01-11.84-15.24-3.04,6.85-1.98,13.08-1.05,19.21,1.55,10.2,3.6,20.33,5.04,30.55,1.13,7.98,1.32,15.98-5.58,23.8-6.34-11.71-12.37-22.84-18.39-33.97-.36.12-.72.24-1.08.37Z"/>
  <path class="cls-1" d="M609.99,407.28c7.08.81,13.24,1.52,19.41,2.23.1-.44.2-.89.31-1.33-5.7-1.68-11.41-3.36-17.33-5.11,18.16-20.18,54.79-12.52,64.67,20.44-23.5,19.46-59.52,6.3-67.05-16.22Z"/>
  <path class="cls-1" d="M262.39,424.31c9.17-31.68,43.31-43.2,63.42-21.26-6.5,1.76-12.69,3.43-18.89,5.11l.23,1.57c6.58-.79,13.16-1.57,19.95-2.38-5.15,24.09-38.64,33.13-64.72,16.96Z"/>
  <path class="cls-1" d="M488.71,356.34c-3.17-4.28-6.16-8.32-9.15-12.36-.41.22-.82.45-1.23.67,1.23,4.27,2.46,8.54,3.77,13.08-27.27-5.16-40.35-26.98-34.96-57.35,31.39,1.67,54.17,29.84,41.57,55.96Z"/>
  <path class="cls-1" d="M560.69,422.76c5.29,2.6,9.66,4.75,14.03,6.9.3-.41.6-.81.89-1.22-3.74-3.15-7.47-6.29-11.46-9.65,19.51-8.52,48.4.35,55.8,36.47-20.06,15.99-53.35-1.59-59.26-32.49Z"/>
  <path class="cls-1" d="M374.33,418.59c-3.73,3.25-6.44,5.61-9.15,7.98.21.44.41.89.62,1.33,3.78-1.82,7.56-3.63,11.58-5.56-1.23,28.27-32.01,46.2-57.58,34.26,3.65-32.65,29.98-46.45,54.53-38.01Z"/>
  <path class="cls-1" d="M644.51,371.57c12.54-25.48,42.84-30.02,64.9-9.38-5.93,12-15.26,19.91-28.52,23.57-13.55,3.75-25.29.6-37.16-8.67,7.57-2.88,13.78-5.23,19.98-7.59-.15-.48-.31-.96-.46-1.44-6.08,1.14-12.17,2.27-18.74,3.5Z"/>
  <path class="cls-1" d="M293.83,372.01c-6.76-1.41-12.79-2.66-18.81-3.91-.19.46-.38.92-.56,1.37,2.91,1.19,5.81,2.42,8.74,3.55,3.07,1.18,6.19,2.25,10.53,3.82-7.8,9.52-17.71,11.36-27.91,10.31-16.62-1.72-28.55-10.82-36.55-25.3,24.09-20.16,50.98-16.02,64.55,10.17Z"/>
  <path class="cls-1" d="M535.94,166.16c9.04,24.16-6.93,51.2-30.36,50.95,2.08-4.39,3.99-8.41,5.9-12.43-.29-.29-.59-.58-.88-.87-3.37,3.65-6.74,7.3-10.16,11-4.69-7.81-4.6-19.05.72-27.65,8.01-12.93,19.74-19.81,34.78-21.01Z"/>
  <path class="cls-1" d="M526.17,273.92v-13.69c-.37-.14-.74-.27-1.11-.41-1.92,4.23-3.83,8.46-5.83,12.86-14.77-15.21-10.12-44.85,19.74-57.18,13.38,20.01,8.17,46.14-12.81,58.42Z"/>
  <path class="cls-1" d="M416.9,270.97c-1.74-3.79-3.36-7.3-5.95-12.93-.29,5.54-.47,9.11-.66,12.76-18.49-4.93-24.07-33.65-11.78-53.33,21.8,4.46,33.8,34.27,18.39,53.5Z"/>
  <path class="cls-1" d="M429.2,159.43c-2.36-3.01-3.92-5.01-6.49-8.28.3,4.06.49,6.64.69,9.36-22.03-4.51-33.6-24.86-26.64-45.98,24.13-1.29,40.98,20.95,32.44,44.91Z"/>
  <path class="cls-1" d="M512.35,159.72c1.93-4.48,3.48-8.08,5.03-11.67-.22-.27-.44-.54-.65-.8-1.37,1.4-2.78,2.77-4.1,4.22-1.51,1.67-2.93,3.42-4.55,5.32-8.68-20.94,10.36-43.78,34.91-42.65,6.68,22.73-6.51,43.31-30.64,45.58Z"/>
  <path class="cls-1" d="M646.06,315.77c4.61.67,8.1,1.18,11.59,1.69l.29-.98c-3.11-1.6-6.21-3.2-9.46-4.87,13.81-12.8,39.34-5.12,47.29,13.78-11.71,14.56-42.5,12.76-49.71-9.62Z"/>
  <path class="cls-1" d="M291.69,312.94c-3.98,1.55-6.92,2.7-12.04,4.71h13.48c-2.66,9.69-9.48,13.91-17.66,16.23-10.24,2.9-19.61-.01-28.5-5.2-3.86-2.26-3.49-5.06-1.5-8.35,9.18-15.13,30.77-19.07,46.23-7.38Z"/>
  <path class="cls-1" d="M594.07,370.79c2.29-4.15,4.44-8.06,6.59-11.98-.43-.37-.86-.74-1.3-1.12-2.23,3.22-4.45,6.44-7.03,10.17-8.74-17.55,7.52-36.79,30.35-38.67,6.49,19.03-8.44,41.16-28.62,41.59Z"/>
  <path class="cls-1" d="M554.8,549.05c-3.74,0-6.08-2.54-5.96-6.48.12-4.14,3.34-8.5,6.11-7.85,3.78.9,5.08,3.98,5.32,7.55.29,4.21-1.82,6.77-5.47,6.78Z"/>
</svg>