<svg xmlns="http://www.w3.org/2000/svg" viewBox="0 0 300 280" fill="currentColor">
  <!-- Arch Frame - Outer -->
  <path d="M150 10 C70 10 20 60 20 140 L20 260 Q20 270 30 270 L270 270 Q280 270 280 260 L280 140 C280 60 230 10 150 10Z" fill="none" stroke="currentColor" stroke-width="6"/>
  <!-- Arch Frame - Inner -->
  <path d="M150 28 C80 28 38 72 38 140 L38 252 L262 252 L262 140 C262 72 220 28 150 28Z" fill="none" stroke="currentColor" stroke-width="3"/>

  <!-- Tree Trunk -->
  <path d="M150 230 L150 155 Q148 145 140 140 Q130 135 125 125 M150 155 Q152 145 160 140 Q170 135 175 125" fill="none" stroke="currentColor" stroke-width="4" stroke-linecap="round"/>
  <!-- Tree Trunk Roots -->
  <path d="M150 230 Q135 235 120 230 M150 230 Q165 235 180 230" fill="none" stroke="currentColor" stroke-width="3" stroke-linecap="round"/>

  <!-- Tree Branches and Leaves -->
  <!-- Central top -->
  <ellipse cx="150" cy="80" rx="8" ry="12" transform="rotate(-5 150 80)"/>
  <ellipse cx="145" cy="70" rx="7" ry="11" transform="rotate(-15 145 70)"/>
  <ellipse cx="155" cy="68" rx="7" ry="11" transform="rotate(10 155 68)"/>
  <ellipse cx="148" cy="58" rx="6" ry="10" transform="rotate(-10 148 58)"/>
  <ellipse cx="158" cy="55" rx="6" ry="10" transform="rotate(15 158 55)"/>
  <ellipse cx="150" cy="48" rx="5" ry="9" transform="rotate(0 150 48)"/>

  <!-- Left branch leaves -->
  <ellipse cx="125" cy="95" rx="7" ry="11" transform="rotate(-30 125 95)"/>
  <ellipse cx="115" cy="85" rx="7" ry="11" transform="rotate(-40 115 85)"/>
  <ellipse cx="108" cy="100" rx="6" ry="10" transform="rotate(-45 108 100)"/>
  <ellipse cx="100" cy="90" rx="6" ry="10" transform="rotate(-50 100 90)"/>
  <ellipse cx="95" cy="105" rx="6" ry="9" transform="rotate(-55 95 105)"/>
  <ellipse cx="88" cy="95" rx="5" ry="9" transform="rotate(-60 88 95)"/>
  <ellipse cx="118" cy="110" rx="7" ry="10" transform="rotate(-25 118 110)"/>
  <ellipse cx="105" cy="115" rx="6" ry="10" transform="rotate(-35 105 115)"/>
  <ellipse cx="130" cy="110" rx="7" ry="11" transform="rotate(-20 130 110)"/>
  <ellipse cx="110" cy="125" rx="6" ry="9" transform="rotate(-30 110 125)"/>

  <!-- Right branch leaves -->
  <ellipse cx="175" cy="95" rx="7" ry="11" transform="rotate(30 175 95)"/>
  <ellipse cx="185" cy="85" rx="7" ry="11" transform="rotate(40 185 85)"/>
  <ellipse cx="192" cy="100" rx="6" ry="10" transform="rotate(45 192 100)"/>
  <ellipse cx="200" cy="90" rx="6" ry="10" transform="rotate(50 200 90)"/>
  <ellipse cx="205" cy="105" rx="6" ry="9" transform="rotate(55 205 105)"/>
  <ellipse cx="212" cy="95" rx="5" ry="9" transform="rotate(60 212 95)"/>
  <ellipse cx="182" cy="110" rx="7" ry="10" transform="rotate(25 182 110)"/>
  <ellipse cx="195" cy="115" rx="6" ry="10" transform="rotate(35 195 115)"/>
  <ellipse cx="170" cy="110" rx="7" ry="11" transform="rotate(20 170 110)"/>
  <ellipse cx="190" cy="125" rx="6" ry="9" transform="rotate(30 190 125)"/>

  <!-- Middle fill leaves -->
  <ellipse cx="138" cy="90" rx="7" ry="10" transform="rotate(-10 138 90)"/>
  <ellipse cx="162" cy="90" rx="7" ry="10" transform="rotate(10 162 90)"/>
  <ellipse cx="135" cy="75" rx="6" ry="10" transform="rotate(-20 135 75)"/>
  <ellipse cx="165" cy="75" rx="6" ry="10" transform="rotate(20 165 75)"/>
  <ellipse cx="140" cy="105" rx="7" ry="10" transform="rotate(-8 140 105)"/>
  <ellipse cx="160" cy="105" rx="7" ry="10" transform="rotate(8 160 105)"/>
  <ellipse cx="150" cy="95" rx="7" ry="10"/>
  <ellipse cx="145" cy="120" rx="7" ry="10" transform="rotate(-5 145 120)"/>
  <ellipse cx="155" cy="118" rx="7" ry="10" transform="rotate(5 155 118)"/>
  <ellipse cx="135" cy="130" rx="6" ry="9" transform="rotate(-10 135 130)"/>
  <ellipse cx="165" cy="130" rx="6" ry="9" transform="rotate(10 165 130)"/>

  <!-- Mountains/Hills -->
  <path d="M115 195 L135 175 L145 185 L160 170 L175 185 L185 195" fill="none" stroke="currentColor" stroke-width="2.5" stroke-linecap="round" stroke-linejoin="round"/>

  <!-- Paddy Field Waves -->
  <path d="M45 210 Q95 195 150 210 Q205 225 255 210" fill="none" stroke="currentColor" stroke-width="3" stroke-linecap="round"/>
  <path d="M40 225 Q95 210 150 225 Q205 240 260 225" fill="none" stroke="currentColor" stroke-width="3" stroke-linecap="round"/>
  <path d="M38 240 Q95 225 150 240 Q205 255 262 240" fill="none" stroke="currentColor" stroke-width="3" stroke-linecap="round"/>
</svg>
